# xmcd
#
# Track frame offsets:
#	157
#	14292
#	26785
#	39617
#	53217
#	65942
#	78557
#	91765
#	107392
#
# Disc length: 1621 seconds
#
# Revision: 0
# Processed by: cddbd v1.5PL3 Copyright (c) Steve Scherf et al.
# Submitted via: EasyCDDAExtractor 4.6.9.1
#
DISCID=6f065309
DTITLE=Blind Lemon Jefferson - Penetentiary Blues
DYEAR=1900
DGENRE=Blues
TTITLE0=The Black Snake Moan
TTITLE1=Chock House Blues
TTITLE2=Chinch Bug Blues
TTITLE3=Deceitful Brownskin Blues
TTITLE4=Balky Mule Blues
TTITLE5=Blind Lemon's Penitentiary Blues
TTITLE6=That Black Snake Moan - No. 2
TTITLE7=Long Distance Moan
TTITLE8=Bakershop Blues
EXTD=
EXTT0=
EXTT1=
EXTT2=
EXTT3=
EXTT4=
EXTT5=
EXTT6=
EXTT7=
EXTT8=
PLAYORDER=
